HIERARCHY
ROOT joint_Root
{
	OFFSET 0.0 0.0 0.0
	CHANNELS 6 Xposition Yposition Zposition Zrotation Xrotation Yrotation 
	JOINT Hips
	{
		OFFSET 4.5925 91.4895 -427.239
		CHANNELS 6 Xposition Yposition Zposition Zrotation Xrotation Yrotation 
		JOINT Spine
		{
			OFFSET 15.7357 0.0 0.0
			CHANNELS 6 Xposition Yposition Zposition Zrotation Xrotation Yrotation 
			JOINT Chest
			{
				OFFSET 8.98455 -0.406207 0.0
				CHANNELS 6 Xposition Yposition Zposition Zrotation Xrotation Yrotation 
				JOINT Neck
				{
					OFFSET 16.3773 0.0 0.0
					CHANNELS 6 Xposition Yposition Zposition Zrotation Xrotation Yrotation 
					JOINT Head
					{
						OFFSET 6.45672 0.0 0.0
						CHANNELS 6 Xposition Yposition Zposition Zrotation Xrotation Yrotation 
						End Site
						{
							OFFSET 0.0 0.0 0.0
						}
					}
				}
				JOINT Shoulder_L
				{
					OFFSET 12.9942 -0.242716 4.98039
					CHANNELS 6 Xposition Yposition Zposition Zrotation Xrotation Yrotation 
					JOINT UpperArm_L
					{
						OFFSET 5.34809 0.0 0.0
						CHANNELS 6 Xposition Yposition Zposition Zrotation Xrotation Yrotation 
						JOINT LowerArm_L
						{
							OFFSET 24.3286 1.87007e-05 0.0
							CHANNELS 6 Xposition Yposition Zposition Zrotation Xrotation Yrotation 
							JOINT Hand_L
							{
								OFFSET 22.2916 0.0 0.0
								CHANNELS 6 Xposition Yposition Zposition Zrotation Xrotation Yrotation 
								End Site
								{
									OFFSET 0.0 0.0 0.0
								}
							}
						}
					}
				}
				JOINT Shoulder_R
				{
					OFFSET 12.9945 -0.242716 -4.98039
					CHANNELS 6 Xposition Yposition Zposition Zrotation Xrotation Yrotation 
					JOINT UpperArm_R
					{
						OFFSET -5.34813 0.0 0.0
						CHANNELS 6 Xposition Yposition Zposition Zrotation Xrotation Yrotation 
						JOINT LowerArm_R
						{
							OFFSET -24.3289 0.000322201 0.0
							CHANNELS 6 Xposition Yposition Zposition Zrotation Xrotation Yrotation 
							JOINT Hand_R
							{
								OFFSET -22.2915 -0.000108084 0.0
								CHANNELS 6 Xposition Yposition Zposition Zrotation Xrotation Yrotation 
								End Site
								{
									OFFSET 0.0 0.0 0.0
								}
							}
						}
					}
				}
			}
		}
		JOINT UpperLeg_L
		{
			OFFSET -2.19248 -6.46944 0.0
			CHANNELS 6 Xposition Yposition Zposition Zrotation Xrotation Yrotation 
			JOINT LowerLeg_L
			{
				OFFSET 39.0811 0.0 -1.23785e-05
				CHANNELS 6 Xposition Yposition Zposition Zrotation Xrotation Yrotation 
				JOINT Foot_L
				{
					OFFSET 40.9854 0.0 -1.26872e-05
					CHANNELS 6 Xposition Yposition Zposition Zrotation Xrotation Yrotation 
					JOINT Toes_L
					{
						OFFSET 11.7543 0.0 0.0
						CHANNELS 6 Xposition Yposition Zposition Zrotation Xrotation Yrotation 
						End Site
						{
							OFFSET 0.0 0.0 0.0
						}
					}
				}
			}
		}
		JOINT UpperLeg_R
		{
			OFFSET -2.19251 6.46944 0.0
			CHANNELS 6 Xposition Yposition Zposition Zrotation Xrotation Yrotation 
			JOINT LowerLeg_R
			{
				OFFSET -39.0811 -0.00228153 -0.0401928
				CHANNELS 6 Xposition Yposition Zposition Zrotation Xrotation Yrotation 
				JOINT Foot_R
				{
					OFFSET -40.9854 0.0 0.0
					CHANNELS 6 Xposition Yposition Zposition Zrotation Xrotation Yrotation 
					JOINT Toes_R
					{
						OFFSET -11.7543 0.0 0.0
						CHANNELS 6 Xposition Yposition Zposition Zrotation Xrotation Yrotation 
						End Site
						{
							OFFSET 0.0 0.0 0.0
						}
					}
				}
			}
		}
	}
}
MOTION
Frames:	4
Frame Time:	0.0333333
0.000000 0.000000 0.000000 0.000000 0.000000 -0.000000 123.750000 87.813300 176.537000 95.039700 -39.566400 6.444660 15.735700 0.000005 -0.000001 54.004300 84.239000 -52.430200 8.984550 -0.406207 -0.000000 1.664620 -6.851870 3.247910 16.377300 -0.000001 -0.000001 -4.974890 -4.320170 0.969930 6.456720 -0.000001 -0.000000 -14.680300 -3.981730 6.550260 12.994200 -0.242716 4.980390 -90.460400 2.075280 -77.488200 5.348090 -0.000007 -0.000001 -49.824300 10.762700 -29.557400 24.328600 0.000019 0.000005 10.650600 13.429100 -38.998200 22.291600 -0.000001 0.000005 17.047700 5.235500 1.812650 12.994500 -0.242716 -4.980390 87.559800 11.874600 -78.299300 -5.348130 -0.000001 -0.000004 -59.915800 16.385400 0.195706 -24.328900 0.000322 -0.000009 1.263010 4.834130 -14.671400 -22.291500 -0.000108 -0.000004 17.673700 5.370670 -2.007240 -2.192480 -6.469440 -0.000000 -168.313000 -18.422000 3.618690 39.081100 -0.000007 -0.000012 0.148918 -0.136362 47.519600 40.985400 -0.000006 -0.000013 -5.586190 -3.389300 -52.771500 11.754300 -0.000000 0.000003 -0.146111 -0.547014 -39.687800 -2.192510 6.469440 -0.000001 -178.435000 13.913200 164.185000 -39.081100 -0.002282 -0.040193 0.041191 -0.038053 44.904900 -40.985400 0.000008 0.000006 13.910900 -1.914320 -77.379900 -11.754300 -0.000006 -0.000006 -1.077490 -1.363730 -16.001400
0.000000 0.000000 0.000000 0.000000 0.000000 -0.000000 121.129000 87.371700 178.499000 94.985400 -41.160800 7.048390 15.735700 0.000005 -0.000001 56.118500 84.256100 -54.190800 8.984550 -0.406207 -0.000000 1.895590 -6.499010 3.962650 16.377300 -0.000001 -0.000001 -4.928700 -5.008160 1.357150 6.456720 -0.000001 -0.000000 -14.337400 -4.405080 6.692680 12.994200 -0.242716 4.980390 -90.507100 2.313090 -77.631800 5.348090 -0.000007 -0.000001 -51.853700 12.989500 -26.623800 24.328600 0.000019 0.000005 12.359800 14.104800 -41.960400 22.291600 -0.000001 0.000005 16.374300 5.249080 1.455670 12.994500 -0.242716 -4.980390 87.440400 12.257300 -78.109000 -5.348130 -0.000001 -0.000004 -59.136700 16.304400 -0.489387 -24.328900 0.000322 -0.000009 1.133850 5.120360 -12.517000 -22.291500 -0.000108 -0.000004 16.195100 5.354870 -1.522000 -2.192480 -6.469440 -0.000000 -168.023000 -17.696300 -0.177934 39.081100 -0.000007 -0.000012 0.237572 -0.162402 55.643300 40.985400 -0.000006 -0.000013 -1.361460 -5.665440 -45.291400 11.754300 -0.000000 0.000003 -0.061332 -0.336093 -30.461700 -2.192510 6.469440 -0.000001 -178.704000 14.755100 166.754000 -39.081100 -0.002282 -0.040193 0.056634 -0.051791 45.861400 -40.985400 0.000008 0.000006 14.836100 -0.391022 -79.480900 -11.754300 -0.000006 -0.000006 -1.737760 -2.220070 -16.622800
0.000000 0.000000 0.000000 0.000000 0.000000 -0.000000 118.776000 87.337600 180.312000 94.959500 -43.423300 7.481400 15.735700 0.000005 -0.000001 59.135500 84.382700 -56.926800 8.984550 -0.406207 -0.000000 2.005000 -5.870770 4.519150 16.377300 -0.000001 -0.000001 -4.953140 -5.555110 1.998630 6.456720 -0.000001 -0.000000 -13.762600 -5.268850 7.868460 12.994200 -0.242716 4.980390 -90.435900 1.982950 -77.599400 5.348090 -0.000007 -0.000001 -55.109000 16.182400 -22.157300 24.328600 0.000019 0.000005 14.913200 15.146900 -45.545000 22.291600 -0.000001 0.000005 15.023800 5.284860 0.489938 12.994500 -0.242716 -4.980390 87.392300 12.505300 -78.121600 -5.348130 -0.000001 -0.000004 -58.606100 16.045800 -1.296220 -24.328900 0.000322 -0.000009 1.517210 7.807440 -11.042400 -22.291500 -0.000108 -0.000004 14.539400 5.325260 -0.645544 -2.192480 -6.469440 -0.000000 -169.180000 -15.757400 -4.164000 39.081100 -0.000007 -0.000012 0.247633 -0.131775 61.980100 40.985400 -0.000006 -0.000013 3.238410 -7.129780 -39.711900 11.754300 -0.000000 0.000003 -0.006809 -0.078024 -19.753000 -2.192510 6.469440 -0.000001 -179.041000 14.564400 169.463000 -39.081100 -0.002282 -0.040193 0.078535 -0.073964 45.502200 -40.985400 0.000008 0.000006 15.591000 1.196100 -79.970100 -11.754300 -0.000006 -0.000006 -2.427360 -3.055850 -17.855500
0.000000 0.000000 0.000000 0.000000 0.000000 -0.000000 116.473000 87.982600 182.111000 94.948700 -46.321100 7.718240 15.735700 0.000005 -0.000001 63.214700 84.486300 -60.784200 8.984550 -0.406207 -0.000000 2.198970 -5.084020 4.956560 16.377300 -0.000001 -0.000001 -5.084100 -5.813720 2.658070 6.456720 -0.000001 -0.000000 -13.416100 -6.128460 9.299080 12.994200 -0.242716 4.980390 -90.454000 2.013290 -77.290700 5.348090 -0.000007 -0.000001 -57.977500 20.254200 -17.214500 24.328600 0.000019 0.000005 17.200800 15.978700 -48.354600 22.291600 -0.000001 0.000005 13.304900 5.329680 -0.781673 12.994500 -0.242716 -4.980390 87.418700 12.640600 -78.359300 -5.348130 -0.000001 -0.000004 -58.555700 15.564200 -2.474300 -24.328900 0.000322 -0.000009 1.839630 10.185600 -10.300200 -22.291500 -0.000108 -0.000004 14.638300 5.298680 0.108503 -2.192480 -6.469440 -0.000000 -170.933000 -13.242400 -7.030620 39.081100 -0.000007 -0.000012 0.197766 -0.088950 65.781700 40.985400 -0.000006 -0.000013 3.411360 -5.531810 -44.446600 11.754300 -0.000000 0.000003 -0.007375 -0.082861 -19.950400 -2.192510 6.469440 -0.000001 -179.152000 12.750700 172.458000 -39.081100 -0.002282 -0.040193 0.084342 -0.085881 43.350400 -40.985400 0.000008 0.000006 16.211400 2.571850 -77.571300 -11.754300 -0.000006 -0.000006 -3.641140 -4.357120 -20.439900
